<?xml version="1.0" encoding="UTF-8" standalone="no"?><!DOCTYPE svg PUBLIC "-//W3C//DTD SVG 1.1//EN" "http://www.w3.org/Graphics/SVG/1.1/DTD/svg11.dtd"><svg width="100%" height="100%" viewBox="0 0 1000 1000" version="1.1" xmlns="http://www.w3.org/2000/svg" xmlns:xlink="http://www.w3.org/1999/xlink" xml:space="preserve" style="fill-rule:evenodd;clip-rule:evenodd;stroke-linejoin:round;stroke-miterlimit:1.41421;"><rect id="cs.-mask" x="0" y="0" width="1000" height="1000" style="fill:none;"/><path d="M500,30l-400,270l0,400l400,270l400,-270l-159,-100l-241,160l-239,-160l0,-200l239,-160l241,160l159,-100l-400,-270Z"/><g id="clear-block"><path d="M741,400l0,200l-240,160l-0.5,-200l240.5,-160Z" style="fill-opacity:0.4;"/><path d="M261,400l0,200l239.5,160l-0.5,-200l-239,-160Z" style="fill-opacity:0.6;"/><path d="M740,400l-239.5,160l-239.5,-160l239,-160" style="fill-opacity:0.8;"/></g></svg>